<svg width="28" height="28" viewBox="0 0 28 28" fill="none" xmlns="http://www.w3.org/2000/svg">
<path d="M14.0103 3.80872e-06C11.241 -0.0020385 8.53318 0.817311 6.22954 2.35441C3.92589 3.89151 2.12987 6.07729 1.06866 8.63528C0.00744828 11.1933 -0.271272 14.0085 0.267755 16.7249C0.806781 19.4413 2.13934 21.9369 4.09686 23.8958C6.05438 25.8548 8.54892 27.1892 11.2649 27.7302C13.981 28.2713 16.7964 27.9946 19.3552 26.9353C21.914 25.876 24.1011 24.0816 25.6399 21.7791C27.1787 19.4765 28 16.7694 28 14C28 10.2888 26.5264 6.72937 23.9031 4.10416C21.2799 1.47894 17.7216 0.00274071 14.0103 3.80872e-06V3.80872e-06ZM14.0103 26.1726C11.5999 26.1746 9.24304 25.4616 7.23799 24.1237C5.23295 22.7858 3.66984 20.8832 2.74646 18.6566C1.82309 16.4301 1.58096 13.9797 2.05071 11.6154C2.52046 9.25124 3.68098 7.07951 5.3854 5.37508C7.08983 3.67065 9.26156 2.51013 11.6258 2.04038C13.99 1.57063 16.4404 1.81276 18.667 2.73614C20.8935 3.65951 22.7961 5.22262 24.134 7.22767C25.4719 9.23271 26.1849 11.5896 26.1829 14C26.1774 17.2267 24.8932 20.3197 22.6116 22.6013C20.33 24.8829 17.237 26.1671 14.0103 26.1726V26.1726Z" fill="white"/>
<path d="M18.6667 9.29204C18.5838 9.20585 18.4844 9.13728 18.3744 9.09044C18.2644 9.04361 18.1461 9.01946 18.0266 9.01946C17.907 9.01946 17.7887 9.04361 17.6787 9.09044C17.5687 9.13728 17.4693 9.20585 17.3864 9.29204L14.0103 12.6681L10.6342 9.29204C10.4576 9.11543 10.2181 9.0162 9.96829 9.0162C9.71852 9.0162 9.47898 9.11543 9.30236 9.29204C9.12575 9.46866 9.02653 9.7082 9.02653 9.95797C9.02653 10.2077 9.12575 10.4473 9.30236 10.6239L12.6785 14L9.30236 17.3761C9.21617 17.459 9.1476 17.5584 9.10077 17.6684C9.05393 17.7784 9.02978 17.8967 9.02978 18.0162C9.02978 18.1358 9.05393 18.2541 9.10077 18.3641C9.1476 18.4741 9.21617 18.5735 9.30236 18.6563C9.3852 18.7423 9.48469 18.8104 9.59476 18.8565C9.70482 18.9027 9.82314 18.9259 9.94248 18.9248C10.0634 18.9261 10.1833 18.903 10.2951 18.8569C10.4068 18.8108 10.5082 18.7426 10.5929 18.6563L13.969 15.2802L17.3451 18.6563C17.428 18.7423 17.5275 18.8104 17.6375 18.8565C17.7476 18.9027 17.8659 18.9259 17.9853 18.9248C18.1048 18.9272 18.2235 18.9045 18.3337 18.8583C18.444 18.812 18.5433 18.7433 18.6254 18.6563C18.7116 18.5735 18.7801 18.4741 18.827 18.3641C18.8738 18.2541 18.898 18.1358 18.898 18.0162C18.898 17.8967 18.8738 17.7784 18.827 17.6684C18.7801 17.5584 18.7116 17.459 18.6254 17.3761L15.2906 14L18.6667 10.6239C18.7583 10.5389 18.8314 10.4358 18.8814 10.3212C18.9314 10.2067 18.9572 10.083 18.9572 9.95797C18.9572 9.83296 18.9314 9.70929 18.8814 9.59471C18.8314 9.48012 18.7583 9.37708 18.6667 9.29204V9.29204Z" fill="white"/>
</svg>
