<svg width="12" height="12" viewBox="0 0 12 12" fill="none" xmlns="http://www.w3.org/2000/svg">
<path d="M11.0689 0.332165C10.9739 0.233439 10.86 0.154896 10.734 0.101243C10.608 0.0476013 10.4725 0.0199386 10.3357 0.0199386C10.1987 0.0199386 10.0632 0.0476013 9.93715 0.101243C9.81115 0.154896 9.6973 0.233439 9.60234 0.332165L5.73519 4.19927L1.86804 0.332165C1.66575 0.129868 1.39141 0.0162048 1.10527 0.0162048C0.819171 0.0162048 0.544789 0.129868 0.34248 0.332165C0.140182 0.534475 0.0265312 0.808856 0.0265312 1.09495C0.0265312 1.38101 0.140182 1.65546 0.34248 1.85774L4.20968 5.7249L0.34248 9.59205C0.243753 9.68701 0.16521 9.80086 0.111569 9.92686C0.0579162 10.0529 0.0302541 10.1884 0.0302541 10.3253C0.0302541 10.4622 0.0579162 10.5978 0.111569 10.7238C0.16521 10.8498 0.243753 10.9636 0.34248 11.0585C0.437369 11.157 0.55133 11.235 0.67741 11.2878C0.803478 11.3407 0.939008 11.3673 1.07571 11.366C1.21421 11.3675 1.35155 11.341 1.47961 11.2882C1.60756 11.2354 1.72371 11.1573 1.82073 11.0585L5.68788 7.1913L9.55503 11.0585C9.64999 11.157 9.76396 11.235 9.88996 11.2878C10.0161 11.3407 10.1516 11.3673 10.2883 11.366C10.4252 11.3688 10.5612 11.3428 10.6874 11.2898C10.8138 11.2368 10.9275 11.1581 11.0216 11.0585C11.1203 10.9636 11.1988 10.8498 11.2525 10.7238C11.3061 10.5978 11.3338 10.4622 11.3338 10.3253C11.3338 10.1884 11.3061 10.0529 11.2525 9.92686C11.1988 9.80086 11.1203 9.68701 11.0216 9.59205L7.20171 5.7249L11.0689 1.85774C11.1738 1.76038 11.2575 1.64229 11.3148 1.51102C11.3721 1.37986 11.4016 1.23817 11.4016 1.09495C11.4016 0.951762 11.3721 0.810105 11.3148 0.678859C11.2575 0.547602 11.1738 0.429574 11.0689 0.332165Z" fill="black"/>
</svg>
