<svg width="39" height="28" viewBox="0 0 39 28" fill="none" xmlns="http://www.w3.org/2000/svg">
<path d="M37.5643 8.05257H27.8635V0.766619C27.8635 0.343445 27.5209 0 27.0969 0H0.766619C0.343445 0 0 0.343445 0 0.766619V19.1808C0 19.6048 0.343445 19.9474 0.766619 19.9474H10.4697V27.2334C10.4697 27.6573 10.8132 28 11.2363 28H37.5643C37.9883 28 38.331 27.6573 38.331 27.2334V8.81919C38.331 8.39525 37.9883 8.05257 37.5643 8.05257ZM36.7977 11.9738H12.003V9.58581H27.0931C27.0946 9.58581 27.0954 9.58657 27.0969 9.58657C27.0985 9.58657 27.0992 9.58581 27.1008 9.58581H36.7977V11.9738ZM26.3303 1.53324V3.92126H1.53324V1.53324H26.3303ZM1.53324 18.4142V5.4545H26.3303V8.05257H11.2363C10.8132 8.05257 10.4697 8.39601 10.4697 8.81919V9.20786H4.19801C3.77483 9.20786 3.43139 9.55131 3.43139 9.97448C3.43139 10.3977 3.77483 10.7411 4.19801 10.7411H10.4697V13.1989H4.19801C3.77483 13.1989 3.43139 13.5423 3.43139 13.9655C3.43139 14.3887 3.77483 14.7321 4.19801 14.7321H10.4697V18.4142H1.53324V18.4142ZM12.003 26.4668V13.5071H36.7977V26.4668H12.003Z" fill="white"/>
<path d="M28.7398 17.2597H14.6677C14.2445 17.2597 13.9011 17.6024 13.9011 18.0263C13.9011 18.4502 14.2445 18.7929 14.6677 18.7929H28.7398C29.1637 18.7929 29.5064 18.4502 29.5064 18.0263C29.5064 17.6024 29.1637 17.2597 28.7398 17.2597Z" fill="white"/>
<path d="M24.7511 21.2499H14.6677C14.2445 21.2499 13.9011 21.5926 13.9011 22.0165C13.9011 22.4405 14.2445 22.7831 14.6677 22.7831H24.7511C25.175 22.7831 25.5177 22.4405 25.5177 22.0165C25.5177 21.5926 25.175 21.2499 24.7511 21.2499Z" fill="white"/>
</svg>
