<svg width="27" height="28" viewBox="0 0 27 28" fill="none" xmlns="http://www.w3.org/2000/svg">
<path d="M18.5119 8.6975C18.7496 8.4628 19.0659 8.33306 19.3941 8.33563C19.7223 8.33821 20.0367 8.47291 20.271 8.7113C20.5053 8.9497 20.6411 9.27315 20.6497 9.6134C20.6584 9.95366 20.5393 10.2841 20.3175 10.535L13.5844 19.2675C13.4686 19.3968 13.3289 19.5006 13.1735 19.5726C13.0182 19.6447 12.8504 19.6835 12.6803 19.6868C12.5102 19.69 12.3411 19.6577 12.1833 19.5917C12.0255 19.5256 11.8822 19.4273 11.7619 19.3025L7.29674 14.672C7.17239 14.5518 7.07266 14.4069 7.00349 14.2459C6.93431 14.0849 6.89712 13.9111 6.89412 13.7349C6.89112 13.5587 6.92238 13.3836 6.98603 13.2202C7.04969 13.0568 7.14443 12.9083 7.26461 12.7837C7.3848 12.659 7.52795 12.5608 7.68555 12.4948C7.84314 12.4288 8.01194 12.3964 8.18187 12.3995C8.35181 12.4026 8.5194 12.4411 8.67465 12.5129C8.8299 12.5846 8.96962 12.688 9.08549 12.817L12.6191 16.4797L18.4798 8.736C18.4904 8.72253 18.5016 8.70967 18.5136 8.6975H18.5119Z" fill="black"/>
</svg>
