<svg width="21" height="21" viewBox="0 0 21 21" fill="none" xmlns="http://www.w3.org/2000/svg">
<g clip-path="url(#clip0)">
<path fill-rule="evenodd" clip-rule="evenodd" d="M13.125 16.4062C13.125 16.5803 13.0559 16.7472 12.9328 16.8703C12.8097 16.9934 12.6428 17.0625 12.4688 17.0625H1.96875C1.7947 17.0625 1.62778 16.9934 1.50471 16.8703C1.38164 16.7472 1.3125 16.5803 1.3125 16.4062V4.59375C1.3125 4.4197 1.38164 4.25278 1.50471 4.12971C1.62778 4.00664 1.7947 3.9375 1.96875 3.9375H12.4688C12.6428 3.9375 12.8097 4.00664 12.9328 4.12971C13.0559 4.25278 13.125 4.4197 13.125 4.59375V7.21875C13.125 7.3928 13.1941 7.55972 13.3172 7.68279C13.4403 7.80586 13.6072 7.875 13.7812 7.875C13.9553 7.875 14.1222 7.80586 14.2453 7.68279C14.3684 7.55972 14.4375 7.3928 14.4375 7.21875V4.59375C14.4375 4.07161 14.2301 3.57085 13.8609 3.20163C13.4917 2.83242 12.9909 2.625 12.4688 2.625H1.96875C1.44661 2.625 0.945846 2.83242 0.576634 3.20163C0.207421 3.57085 0 4.07161 0 4.59375L0 16.4062C0 16.9284 0.207421 17.4292 0.576634 17.7984C0.945846 18.1676 1.44661 18.375 1.96875 18.375H12.4688C12.9909 18.375 13.4917 18.1676 13.8609 17.7984C14.2301 17.4292 14.4375 16.9284 14.4375 16.4062V13.7812C14.4375 13.6072 14.3684 13.4403 14.2453 13.3172C14.1222 13.1941 13.9553 13.125 13.7812 13.125C13.6072 13.125 13.4403 13.1941 13.3172 13.3172C13.1941 13.4403 13.125 13.6072 13.125 13.7812V16.4062Z" fill="white"/>
<path fill-rule="evenodd" clip-rule="evenodd" d="M20.8084 10.9646C20.8695 10.9037 20.918 10.8312 20.9511 10.7515C20.9841 10.6718 21.0012 10.5863 21.0012 10.5C21.0012 10.4137 20.9841 10.3282 20.9511 10.2485C20.918 10.1688 20.8695 10.0963 20.8084 10.0354L16.8709 6.09788C16.7477 5.97465 16.5805 5.90543 16.4063 5.90543C16.232 5.90543 16.0649 5.97465 15.9416 6.09788C15.8184 6.22111 15.7492 6.38824 15.7492 6.5625C15.7492 6.73677 15.8184 6.9039 15.9416 7.02713L18.7596 9.84375H7.21875C7.0447 9.84375 6.87778 9.91289 6.75471 10.036C6.63164 10.159 6.5625 10.326 6.5625 10.5C6.5625 10.6741 6.63164 10.841 6.75471 10.964C6.87778 11.0871 7.0447 11.1563 7.21875 11.1563H18.7596L15.9416 13.9729C15.8184 14.0961 15.7492 14.2632 15.7492 14.4375C15.7492 14.6118 15.8184 14.7789 15.9416 14.9021C16.0649 15.0254 16.232 15.0946 16.4063 15.0946C16.5805 15.0946 16.7477 15.0254 16.8709 14.9021L20.8084 10.9646Z" fill="white"/>
</g>
<defs>
<clipPath id="clip0">
<rect width="21" height="21" fill="white"/>
</clipPath>
</defs>
</svg>
