<svg width="20" height="20" viewBox="0 0 20 20" fill="none" xmlns="http://www.w3.org/2000/svg">
<path fill-rule="evenodd" clip-rule="evenodd" d="M5.80752 2.0575C5.74931 2.11556 5.70314 2.18453 5.67163 2.26046C5.64012 2.33639 5.6239 2.41779 5.6239 2.5C5.6239 2.58221 5.64012 2.66361 5.67163 2.73955C5.70314 2.81548 5.74931 2.88445 5.80752 2.9425L12.8663 10L5.80752 17.0575C5.74941 17.1156 5.70331 17.1846 5.67186 17.2605C5.64042 17.3364 5.62423 17.4178 5.62423 17.5C5.62423 17.5822 5.64042 17.6636 5.67186 17.7395C5.70331 17.8154 5.74941 17.8844 5.80752 17.9425C5.86563 18.0006 5.93462 18.0467 6.01054 18.0782C6.08646 18.1096 6.16784 18.1258 6.25002 18.1258C6.3322 18.1258 6.41357 18.1096 6.4895 18.0782C6.56542 18.0467 6.63441 18.0006 6.69252 17.9425L14.1925 10.4425C14.2507 10.3844 14.2969 10.3155 14.3284 10.2395C14.3599 10.1636 14.3761 10.0822 14.3761 10C14.3761 9.91779 14.3599 9.83639 14.3284 9.76046C14.2969 9.68453 14.2507 9.61556 14.1925 9.5575L6.69252 2.0575C6.63446 1.9993 6.56549 1.95312 6.48956 1.92161C6.41363 1.8901 6.33223 1.87389 6.25002 1.87389C6.16781 1.87389 6.08641 1.8901 6.01048 1.92161C5.93454 1.95312 5.86558 1.9993 5.80752 2.0575Z" fill="black"/>
</svg>
