<svg width="25" height="25" viewBox="0 0 25 25" fill="none" xmlns="http://www.w3.org/2000/svg">
<path d="M0.78125 15.4688C0.98845 15.4688 1.18716 15.5511 1.33368 15.6976C1.48019 15.8441 1.5625 16.0428 1.5625 16.25V20.1563C1.5625 20.5707 1.72712 20.9681 2.02015 21.2611C2.31317 21.5541 2.7106 21.7188 3.125 21.7188H21.875C22.2894 21.7188 22.6868 21.5541 22.9799 21.2611C23.2729 20.9681 23.4375 20.5707 23.4375 20.1563V16.25C23.4375 16.0428 23.5198 15.8441 23.6663 15.6976C23.8128 15.5511 24.0115 15.4688 24.2188 15.4688C24.426 15.4688 24.6247 15.5511 24.7712 15.6976C24.9177 15.8441 25 16.0428 25 16.25V20.1563C25 20.9851 24.6708 21.7799 24.0847 22.366C23.4987 22.952 22.7038 23.2813 21.875 23.2813H3.125C2.2962 23.2813 1.50134 22.952 0.915291 22.366C0.32924 21.7799 0 20.9851 0 20.1563V16.25C0 16.0428 0.08231 15.8441 0.228823 15.6976C0.375336 15.5511 0.57405 15.4688 0.78125 15.4688Z" fill="white"/>
<path d="M11.9469 1.79062C12.0195 1.71786 12.1057 1.66014 12.2006 1.62075C12.2955 1.58137 12.3972 1.5611 12.5 1.5611C12.6028 1.5611 12.7045 1.58137 12.7994 1.62075C12.8944 1.66014 12.9806 1.71786 13.0531 1.79062L17.7406 6.47812C17.8873 6.62481 17.9697 6.82378 17.9697 7.03124C17.9697 7.2387 17.8873 7.43767 17.7406 7.58437C17.5939 7.73107 17.395 7.81348 17.1875 7.81348C16.98 7.81348 16.7811 7.73107 16.6344 7.58437L13.2813 4.22968V17.9687C13.2813 18.1759 13.199 18.3747 13.0524 18.5212C12.9059 18.6677 12.7072 18.75 12.5 18.75C12.2928 18.75 12.0941 18.6677 11.9476 18.5212C11.8011 18.3747 11.7188 18.1759 11.7188 17.9687V4.22968L8.36564 7.58437C8.293 7.657 8.20677 7.71462 8.11186 7.75394C8.01695 7.79325 7.91524 7.81348 7.81251 7.81348C7.70979 7.81348 7.60807 7.79325 7.51316 7.75394C7.41826 7.71462 7.33202 7.657 7.25939 7.58437C7.18675 7.51173 7.12913 7.4255 7.08982 7.33059C7.05051 7.23569 7.03027 7.13397 7.03027 7.03124C7.03027 6.92852 7.05051 6.8268 7.08982 6.73189C7.12913 6.63699 7.18675 6.55075 7.25939 6.47812L11.9469 1.79062Z" fill="white"/>
</svg>
