<svg width="25" height="25" viewBox="0 0 25 25" fill="none" xmlns="http://www.w3.org/2000/svg">
<path fill-rule="evenodd" clip-rule="evenodd" d="M0 7.8125C0 6.9837 0.32924 6.18884 0.915291 5.60279C1.50134 5.01674 2.2962 4.6875 3.125 4.6875H14.8438C15.6017 4.68741 16.3339 4.9628 16.9039 5.46239C17.4739 5.96197 17.8429 6.6517 17.9422 7.40312L22.8016 5.24375C23.0394 5.13777 23.3 5.09291 23.5596 5.11326C23.8192 5.13361 24.0696 5.21851 24.288 5.36025C24.5065 5.502 24.686 5.69609 24.8104 5.92488C24.9347 6.15367 24.9999 6.40991 25 6.67031V18.3297C24.9998 18.5899 24.9346 18.8459 24.8103 19.0745C24.6861 19.3031 24.5067 19.4971 24.2885 19.6388C24.0702 19.7805 23.8201 19.8654 23.5607 19.886C23.3013 19.9065 23.0409 19.8619 22.8031 19.7563L17.9422 17.5969C17.8429 18.3483 17.4739 19.038 16.9039 19.5376C16.3339 20.0372 15.6017 20.3126 14.8438 20.3125H3.125C2.2962 20.3125 1.50134 19.9833 0.915291 19.3972C0.32924 18.8112 0 18.0163 0 17.1875V7.8125ZM17.9688 15.8984L23.4375 18.3297V6.67031L17.9688 9.10156V15.8984ZM3.125 6.25C2.7106 6.25 2.31317 6.41462 2.02015 6.70765C1.72712 7.00067 1.5625 7.3981 1.5625 7.8125V17.1875C1.5625 17.6019 1.72712 17.9993 2.02015 18.2924C2.31317 18.5854 2.7106 18.75 3.125 18.75H14.8438C15.2582 18.75 15.6556 18.5854 15.9486 18.2924C16.2416 17.9993 16.4062 17.6019 16.4062 17.1875V7.8125C16.4062 7.3981 16.2416 7.00067 15.9486 6.70765C15.6556 6.41462 15.2582 6.25 14.8438 6.25H3.125Z" fill="black"/>
</svg>
