<svg width="20" height="20" viewBox="0 0 20 20" fill="none" xmlns="http://www.w3.org/2000/svg">
<path fill-rule="evenodd" clip-rule="evenodd" d="M2.05749 5.80752C2.11555 5.74931 2.18451 5.70314 2.26045 5.67163C2.33638 5.64012 2.41778 5.6239 2.49999 5.6239C2.5822 5.6239 2.6636 5.64012 2.73953 5.67163C2.81546 5.70314 2.88443 5.74931 2.94249 5.80752L9.99999 12.8663L17.0575 5.80752C17.1156 5.74941 17.1846 5.70331 17.2605 5.67186C17.3364 5.64042 17.4178 5.62423 17.5 5.62423C17.5822 5.62423 17.6635 5.64042 17.7395 5.67186C17.8154 5.70331 17.8844 5.74941 17.9425 5.80752C18.0006 5.86563 18.0467 5.93461 18.0781 6.01054C18.1096 6.08646 18.1258 6.16784 18.1258 6.25002C18.1258 6.3322 18.1096 6.41357 18.0781 6.4895C18.0467 6.56542 18.0006 6.63441 17.9425 6.69252L10.4425 14.1925C10.3844 14.2507 10.3155 14.2969 10.2395 14.3284C10.1636 14.3599 10.0822 14.3761 9.99999 14.3761C9.91778 14.3761 9.83638 14.3599 9.76044 14.3284C9.68451 14.2969 9.61554 14.2507 9.55749 14.1925L2.05749 6.69252C1.99928 6.63446 1.95311 6.56549 1.9216 6.48956C1.89009 6.41363 1.87387 6.33223 1.87387 6.25002C1.87387 6.16781 1.89009 6.08641 1.9216 6.01048C1.95311 5.93454 1.99928 5.86558 2.05749 5.80752Z" fill="white"/>
</svg>
