<svg width="25" height="25" viewBox="0 0 25 25" fill="none" xmlns="http://www.w3.org/2000/svg">
<g clip-path="url(#clip0)">
<path d="M18.0556 9.72221C18.0556 5.88541 14.0148 2.77777 9.02778 2.77777C4.0408 2.77777 0 5.88541 0 9.72221C0 11.2109 0.611979 12.5825 1.64931 13.7153C1.06771 15.026 0.108507 16.0677 0.0954861 16.0807C0 16.1805 -0.0260417 16.3281 0.0303819 16.4583C0.0868056 16.5885 0.208333 16.6667 0.347222 16.6667C1.93576 16.6667 3.25087 16.1328 4.19705 15.5816C5.59462 16.263 7.24826 16.6667 9.02778 16.6667C14.0148 16.6667 18.0556 13.559 18.0556 9.72221ZM23.3507 19.2708C24.388 18.1424 25 16.7665 25 15.2778C25 12.3741 22.678 9.88715 19.388 8.84982C19.4271 9.13628 19.4444 9.42708 19.4444 9.72221C19.4444 14.3186 14.77 18.0555 9.02778 18.0555C8.55903 18.0555 8.1033 18.0208 7.65191 17.9731C9.0191 20.4687 12.2309 22.2222 15.9722 22.2222C17.7517 22.2222 19.4054 21.8229 20.8029 21.1371C21.7491 21.6884 23.0642 22.2222 24.6528 22.2222C24.7917 22.2222 24.9175 22.1397 24.9696 22.0139C25.026 21.888 25 21.7404 24.9045 21.6363C24.8915 21.6233 23.9323 20.5859 23.3507 19.2708Z" fill="black"/>
</g>
<defs>
<clipPath id="clip0">
<rect width="25" height="25" fill="white"/>
</clipPath>
</defs>
</svg>
